<mxfile host="app.diagrams.net" agent="Mozilla/5.0 (Windows NT 10.0; Win64; x64) AppleWebKit/537.36 (KHTML, like Gecko) Chrome/131.0.0.0 Safari/537.36" version="25.0.1">
  <diagram name="StrÃ¡nka-1" id="rjlnsT1P3q2z6yIxk-TU">
    <mxGraphModel dx="6600" dy="-4457" grid="0" gridSize="10" guides="1" tooltips="1" connect="1" arrows="1" fold="1" page="0" pageScale="1" pageWidth="827" pageHeight="1169" math="0" shadow="0">
      <root>
        <mxCell id="0" />
        <mxCell id="1" parent="0" />
        <mxCell id="Jt5PT3n2p7hqvyH9qznE-1" value="&lt;b&gt;&lt;font style=&quot;font-size: 15px;&quot;&gt;Store branch&lt;/font&gt;&lt;/b&gt;" style="swimlane;fontStyle=0;childLayout=stackLayout;horizontal=1;startSize=26;fillColor=none;horizontalStack=0;resizeParent=1;resizeParentMax=0;resizeLast=0;collapsible=1;marginBottom=0;whiteSpace=wrap;html=1;" vertex="1" parent="1">
          <mxGeometry x="-4529.0001220703125" y="5700" width="120" height="160" as="geometry" />
        </mxCell>
        <mxCell id="Jt5PT3n2p7hqvyH9qznE-2" value="- name [0..*]&lt;br&gt;- has_warehouse" style="text;strokeColor=none;fillColor=none;align=left;verticalAlign=top;spacingLeft=4;spacingRight=4;overflow=hidden;rotatable=0;points=[[0,0.5],[1,0.5]];portConstraint=eastwest;whiteSpace=wrap;html=1;fontSize=14;" vertex="1" parent="Jt5PT3n2p7hqvyH9qznE-1">
          <mxGeometry y="26" width="120" height="134" as="geometry" />
        </mxCell>
        <mxCell id="Jt5PT3n2p7hqvyH9qznE-3" value="&lt;b&gt;&lt;font style=&quot;font-size: 15px;&quot;&gt;Employee&lt;/font&gt;&lt;/b&gt;" style="swimlane;fontStyle=0;childLayout=stackLayout;horizontal=1;startSize=26;fillColor=#f8cecc;horizontalStack=0;resizeParent=1;resizeParentMax=0;resizeLast=0;collapsible=1;marginBottom=0;whiteSpace=wrap;html=1;strokeColor=#b85450;" vertex="1" parent="1">
          <mxGeometry x="-4809.0001220703125" y="5700" width="120" height="160" as="geometry" />
        </mxCell>
        <mxCell id="Jt5PT3n2p7hqvyH9qznE-4" value="- given_name" style="text;strokeColor=none;fillColor=none;align=left;verticalAlign=top;spacingLeft=4;spacingRight=4;overflow=hidden;rotatable=0;points=[[0,0.5],[1,0.5]];portConstraint=eastwest;whiteSpace=wrap;html=1;fontSize=14;" vertex="1" parent="Jt5PT3n2p7hqvyH9qznE-3">
          <mxGeometry y="26" width="120" height="26" as="geometry" />
        </mxCell>
        <mxCell id="Jt5PT3n2p7hqvyH9qznE-5" value="-&amp;nbsp;family_name" style="text;strokeColor=none;fillColor=none;align=left;verticalAlign=top;spacingLeft=4;spacingRight=4;overflow=hidden;rotatable=0;points=[[0,0.5],[1,0.5]];portConstraint=eastwest;whiteSpace=wrap;html=1;fontSize=14;" vertex="1" parent="Jt5PT3n2p7hqvyH9qznE-3">
          <mxGeometry y="52" width="120" height="108" as="geometry" />
        </mxCell>
        <mxCell id="Jt5PT3n2p7hqvyH9qznE-6" value="0..n" style="text;strokeColor=none;fillColor=none;align=left;verticalAlign=top;spacingLeft=4;spacingRight=4;overflow=hidden;rotatable=0;points=[[0,0.5],[1,0.5]];portConstraint=eastwest;whiteSpace=wrap;html=1;" vertex="1" parent="1">
          <mxGeometry x="-4689.0001220703125" y="5774" width="40" height="26" as="geometry" />
        </mxCell>
        <mxCell id="Jt5PT3n2p7hqvyH9qznE-7" value="1..1" style="text;strokeColor=none;fillColor=none;align=left;verticalAlign=top;spacingLeft=4;spacingRight=4;overflow=hidden;rotatable=0;points=[[0,0.5],[1,0.5]];portConstraint=eastwest;whiteSpace=wrap;html=1;" vertex="1" parent="1">
          <mxGeometry x="-4569.0001220703125" y="5774" width="40" height="26" as="geometry" />
        </mxCell>
        <mxCell id="Jt5PT3n2p7hqvyH9qznE-8" value="works at" style="text;align=center;fontStyle=0;verticalAlign=middle;spacingLeft=3;spacingRight=3;strokeColor=none;rotatable=0;points=[[0,0.5],[1,0.5]];portConstraint=eastwest;html=1;fontSize=14;" vertex="1" parent="1">
          <mxGeometry x="-4659.0001220703125" y="5777" width="80" height="26" as="geometry" />
        </mxCell>
        <mxCell id="Jt5PT3n2p7hqvyH9qznE-9" value="&lt;b&gt;&lt;font style=&quot;font-size: 15px;&quot;&gt;Cash Register&lt;/font&gt;&lt;/b&gt;" style="swimlane;fontStyle=0;childLayout=stackLayout;horizontal=1;startSize=26;fillColor=none;horizontalStack=0;resizeParent=1;resizeParentMax=0;resizeLast=0;collapsible=1;marginBottom=0;whiteSpace=wrap;html=1;" vertex="1" parent="1">
          <mxGeometry x="-4529.0001220703125" y="5400" width="140" height="146" as="geometry" />
        </mxCell>
        <mxCell id="Jt5PT3n2p7hqvyH9qznE-10" value="-&amp;nbsp;number" style="text;strokeColor=none;fillColor=none;align=left;verticalAlign=top;spacingLeft=4;spacingRight=4;overflow=hidden;rotatable=0;points=[[0,0.5],[1,0.5]];portConstraint=eastwest;whiteSpace=wrap;html=1;fontSize=14;" vertex="1" parent="Jt5PT3n2p7hqvyH9qznE-9">
          <mxGeometry y="26" width="140" height="26" as="geometry" />
        </mxCell>
        <mxCell id="Jt5PT3n2p7hqvyH9qznE-11" value="- is_self_checkout" style="text;strokeColor=none;fillColor=none;align=left;verticalAlign=top;spacingLeft=4;spacingRight=4;overflow=hidden;rotatable=0;points=[[0,0.5],[1,0.5]];portConstraint=eastwest;whiteSpace=wrap;html=1;fontSize=14;" vertex="1" parent="Jt5PT3n2p7hqvyH9qznE-9">
          <mxGeometry y="52" width="140" height="26" as="geometry" />
        </mxCell>
        <mxCell id="Jt5PT3n2p7hqvyH9qznE-12" value="&lt;div&gt;&lt;br&gt;&lt;/div&gt;&lt;div&gt;&lt;br&gt;&lt;/div&gt;" style="text;strokeColor=none;fillColor=none;align=left;verticalAlign=top;spacingLeft=4;spacingRight=4;overflow=hidden;rotatable=0;points=[[0,0.5],[1,0.5]];portConstraint=eastwest;whiteSpace=wrap;html=1;" vertex="1" parent="Jt5PT3n2p7hqvyH9qznE-9">
          <mxGeometry y="78" width="140" height="68" as="geometry" />
        </mxCell>
        <mxCell id="Jt5PT3n2p7hqvyH9qznE-13" value="1..n" style="text;strokeColor=none;fillColor=none;align=left;verticalAlign=top;spacingLeft=4;spacingRight=4;overflow=hidden;rotatable=0;points=[[0,0.5],[1,0.5]];portConstraint=eastwest;whiteSpace=wrap;html=1;" vertex="1" parent="1">
          <mxGeometry x="-4469.0001220703125" y="5520" width="40" height="26" as="geometry" />
        </mxCell>
        <mxCell id="Jt5PT3n2p7hqvyH9qznE-14" value="1..1" style="text;strokeColor=none;fillColor=none;align=left;verticalAlign=top;spacingLeft=4;spacingRight=4;overflow=hidden;rotatable=0;points=[[0,0.5],[1,0.5]];portConstraint=eastwest;whiteSpace=wrap;html=1;" vertex="1" parent="1">
          <mxGeometry x="-4469.0001220703125" y="5670" width="40" height="30" as="geometry" />
        </mxCell>
        <mxCell id="Jt5PT3n2p7hqvyH9qznE-15" value="1..1" style="text;strokeColor=none;fillColor=none;align=left;verticalAlign=top;spacingLeft=4;spacingRight=4;overflow=hidden;rotatable=0;points=[[0,0.5],[1,0.5]];portConstraint=eastwest;whiteSpace=wrap;html=1;" vertex="1" parent="1">
          <mxGeometry x="-4769.0001220703125" y="5670" width="40" height="26" as="geometry" />
        </mxCell>
        <mxCell id="Jt5PT3n2p7hqvyH9qznE-16" value="0..n" style="text;strokeColor=none;fillColor=none;align=left;verticalAlign=top;spacingLeft=4;spacingRight=4;overflow=hidden;rotatable=0;points=[[0,0.5],[1,0.5]];portConstraint=eastwest;whiteSpace=wrap;html=1;" vertex="1" parent="1">
          <mxGeometry x="-4569.0001220703125" y="5480" width="40" height="26" as="geometry" />
        </mxCell>
        <mxCell id="Jt5PT3n2p7hqvyH9qznE-17" value="leads" style="text;align=center;fontStyle=0;verticalAlign=middle;spacingLeft=3;spacingRight=3;strokeColor=none;rotatable=0;points=[[0,0.5],[1,0.5]];portConstraint=eastwest;html=1;fontSize=14;" vertex="1" parent="1">
          <mxGeometry x="-4779.0001220703125" y="5494" width="80" height="26" as="geometry" />
        </mxCell>
        <mxCell id="Jt5PT3n2p7hqvyH9qznE-18" value="" style="endArrow=classic;html=1;rounded=0;exitX=0.25;exitY=0;exitDx=0;exitDy=0;" edge="1" parent="1" source="Jt5PT3n2p7hqvyH9qznE-3">
          <mxGeometry width="50" height="50" relative="1" as="geometry">
            <mxPoint x="-4500.0001220703125" y="5846" as="sourcePoint" />
            <mxPoint x="-4530.0001220703125" y="5456" as="targetPoint" />
            <Array as="points">
              <mxPoint x="-4779.0001220703125" y="5456" />
            </Array>
          </mxGeometry>
        </mxCell>
        <mxCell id="Jt5PT3n2p7hqvyH9qznE-19" value="" style="endArrow=classic;html=1;rounded=0;exitX=1.027;exitY=0.135;exitDx=0;exitDy=0;exitPerimeter=0;entryX=-0.024;entryY=0.297;entryDx=0;entryDy=0;entryPerimeter=0;dashed=1;dashPattern=8 8;" edge="1" parent="1" source="Jt5PT3n2p7hqvyH9qznE-5" target="Jt5PT3n2p7hqvyH9qznE-2">
          <mxGeometry width="50" height="50" relative="1" as="geometry">
            <mxPoint x="-4540.0001220703125" y="5706" as="sourcePoint" />
            <mxPoint x="-4490.0001220703125" y="5656" as="targetPoint" />
          </mxGeometry>
        </mxCell>
      </root>
    </mxGraphModel>
  </diagram>
</mxfile>
